<svg enable-background="new 0 0 1000 1000" viewBox="0 0 1000 1000" xmlns="http://www.w3.org/2000/svg"><ellipse cx="496.6" cy="947.6" fill="#ff9e00" rx="39.1" ry="39.1" transform="matrix(.1602 -.9871 .9871 .1602 -518.3674 1285.9928)"/><circle cx="933.8" cy="820.2" fill="#ff9e00" r="39.1"/><ellipse cx="823.8" cy="720.7" fill="#ff9e00" rx="39.1" ry="39.1" transform="matrix(.1602 -.9871 .9871 .1602 -19.5703 1418.4502)"/><circle cx="58.6" cy="820.2" fill="#ff9e00" r="39.1"/><ellipse cx="168.6" cy="720.7" fill="#ff9e00" rx="39.1" ry="39.1" transform="matrix(.7071 -.7071 .7071 .7071 -460.2472 330.3173)"/><g fill="none" stroke="#7f68be" stroke-miterlimit="10" stroke-width="22"><path d="m198.7 586.7c-83.5 0-151.2-67.7-151.2-151.2s67.7-151.2 151.2-151.2c4.6 0 9.2.2 13.8.7-7.3-19.3-10-40.7-6.6-62.6 10.4-67.4 73.5-113.5 140.9-103.1 17.2 2.7 33 8.8 46.9 17.6 21.7-68.5 85.7-118.1 161.3-118.1 93.4 0 169.1 75.7 169.1 169.1 0 3.3-.1 6.6-.3 9.9 8.7-1.2 17.5-1.8 26.5-1.8 107.9 0 195.4 87.5 195.4 195.4s-87.5 195.4-195.4 195.4h-551.6z"/><path d="m496.6 620.5v288"/><path d="m587.1 620.5v199.7h307.6"/><path d="m671.7 620.5v100.2h113"/><path d="m405.3 620.5v199.7h-307.6"/><path d="m320.7 620.5v100.2h-113"/></g></svg>