<svg enable-background="new 0 0 1000 1000" viewBox="0 0 1000 1000" xmlns="http://www.w3.org/2000/svg"><path d="m473.8 217.4c0 21.6 17.5 39.1 39.1 39.1s39.1-17.5 39.1-39.1-17.5-39.1-39.1-39.1-39.1 17.5-39.1 39.1z" fill="#ff9e00"/><path d="m366.3 310.5c0 21.6 17.5 39.1 39.1 39.1s39.1-17.5 39.1-39.1-17.5-39.1-39.1-39.1c-21.6.1-39.1 17.6-39.1 39.1z" fill="#ff9e00"/><path d="m258.8 418c0 21.6 17.5 39.1 39.1 39.1s39.1-17.5 39.1-39.1-17.5-39.1-39.1-39.1c-21.6.1-39.1 17.6-39.1 39.1z" fill="#ff9e00"/><path d="m645.8 267.6c0 21.6 17.5 39.1 39.1 39.1s39.1-17.5 39.1-39.1-17.5-39.1-39.1-39.1c-21.7 0-39.1 17.5-39.1 39.1z" fill="#ff9e00"/><path d="m767.6 446.7c0 21.6 17.5 39.1 39.1 39.1s39.1-17.5 39.1-39.1-17.5-39.1-39.1-39.1-39.1 17.5-39.1 39.1z" fill="#ff9e00"/><g fill="none" stroke="#7f68be" stroke-miterlimit="10" stroke-width="22"><path d="m823.5 984.5s-30.7-142.2-43.8-207c-5.2-25.9 3.5-52.8 23.5-70.2 87.8-76.3 141.3-191.2 134.2-318.3-11.1-199.1-173.1-359.5-372.3-369-225.1-10.6-411 168.7-411 391.5 0 7-90.2 141.9-90.2 141.9-16.9 22.6-.8 54.7 27.3 54.7h44.7v157.5c0 31.6 23.5 54.3 52.5 56l126.2 7.4c15.9.9 28.3 14.1 28.3 30v125.5"/><path d="m512.8 256.5v123.5c0 9.3 2.5 18.3 7.3 26.2l35.3 58c4.8 7.9 7.3 17 7.3 26.2v494"/><path d="m405.4 349.6v74.4c0 9.9 2.9 19.5 8.3 27.7l71.4 108.5c5.4 8.2 8.3 17.9 8.3 27.7v396.5"/><path d="m684.8 306.6v115.2c0 8.5-2.2 16.9-6.3 24.4l-40 72.6c-4.1 7.5-6.3 15.8-6.3 24.4v441.3"/><path d="m297.9 457.1v27.4c0 10.1 3 20 8.7 28.4l108.6 159.6c5.7 8.4 8.7 18.3 8.7 28.4v283.6"/><path d="m806.6 485.8v37.6c0 10.4-3.2 20.6-9.3 29.1l-86.3 122.3c-6 8.5-9.3 18.7-9.3 29.1v280.6"/></g></svg>