<svg enable-background="new 0 0 1000 1000" viewBox="0 0 1000 1000" xmlns="http://www.w3.org/2000/svg"><path d="m593 312.2c-30.6-10.5-62.6-16-95.3-16s-64.7 5.4-95.3 16c-6 45.2-43.6 80.5-89.9 82.9.2 59.1 14.5 116.9 41.9 168.7 31.8 60.1 78.9 107.7 136.3 137.6l7 3.6 7-3.6c57.3-30 104.5-77.6 136.3-137.6 27.4-51.8 41.7-109.6 41.9-168.7-46.3-2.4-83.9-37.7-89.9-82.9z" fill="#ff9e00"/><g fill="none" stroke="#7f68be" stroke-miterlimit="10" stroke-width="22"><path d="m212.3 500.6c0-157.6 127.8-285.4 285.4-285.4s285.4 127.8 285.4 285.4-127.8 285.4-285.4 285.4-285.4-127.8-285.4-285.4"/><ellipse cx="497.7" cy="925.2" rx="53.5" ry="53.5" transform="matrix(.1602 -.9871 .9871 .1602 -495.2348 1268.2825)"/><ellipse cx="497.7" cy="76" rx="53.5" ry="53.5" transform="matrix(.1602 -.9871 .9871 .1602 342.9369 555.1627)"/><path d="m497.7 129.6v53.7"/><path d="m497.7 871.7v-53.8"/><circle cx="197.5" cy="800.8" r="53.5"/><circle cx="797.9" cy="200.4" r="53.5"/><path d="m760.1 238.2-60.6 60.6"/><path d="m235.4 763 60.5-60.6"/><ellipse cx="73.2" cy="500.6" rx="53.5" ry="53.5" transform="matrix(.2298 -.9732 .9732 .2298 -430.8708 456.7959)"/><ellipse cx="922.3" cy="500.6" rx="53.5" ry="53.5" transform="matrix(.7071 -.7071 .7071 .7071 -83.8527 798.7865)"/><path d="m868.8 500.6h-53.8"/><path d="m126.7 500.6h53.7"/><path d="m835.8 763c20.9 20.9 20.9 54.8 0 75.7s-54.8 20.9-75.7 0-20.9-54.8 0-75.7 54.8-20.9 75.7 0z"/><path d="m235.4 162.5c20.9 20.9 20.9 54.8 0 75.7s-54.8 20.9-75.7 0-20.9-54.8 0-75.7 54.8-20.9 75.7 0z"/><path d="m235.4 238.2 60.5 60.6"/><path d="m760.1 763-60.6-60.6"/><path d="m417.3 464 67.5 86.6 93.4-138.3"/></g></svg>