<svg enable-background="new 0 0 1000 1000" viewBox="0 0 1000 1000" xmlns="http://www.w3.org/2000/svg"><g fill="none" stroke-miterlimit="10" stroke-width="22"><path d="m217 581.5v85.6" stroke="#ff9e00"/><path d="m371.5 581.5v85.6" stroke="#ff9e00"/><path d="m295.9 416.8v80" stroke="#ff9e00"/><path d="m295.9 751.9v80" stroke="#ff9e00"/><path d="m525.9 581.5v85.6" stroke="#ff9e00"/><path d="m450.3 411.2v85.6" stroke="#ff9e00"/><path d="m450.3 751.9v85.6" stroke="#ff9e00"/><path d="m680.3 581.5v85.6" stroke="#ff9e00"/><path d="m604.7 419.2v77.6" stroke="#ff9e00"/><path d="m604.7 751.9v77.6" stroke="#ff9e00"/><path d="m295.9 667.1c13.3 0 24.2-10.8 24.2-24.2v-37.3c0-13.3-10.8-24.2-24.2-24.2-13.3 0-24.2 10.8-24.2 24.2v37.4c0 13.3 10.8 24.1 24.2 24.1z" stroke="#ff9e00"/><path d="m354.8 496.8h33.3c4.2 0 7.5-3.4 7.5-7.5v-70.5c0-4.2-3.4-7.5-7.5-7.5h-33.3c-4.2 0-7.5 3.4-7.5 7.5v70.5c0 4.1 3.4 7.5 7.5 7.5z" stroke="#ff9e00"/><path d="m354.8 837.5h33.3c4.2 0 7.5-3.4 7.5-7.5v-70.5c0-4.2-3.4-7.5-7.5-7.5h-33.3c-4.2 0-7.5 3.4-7.5 7.5v70.5c0 4.1 3.4 7.5 7.5 7.5z" stroke="#ff9e00"/><path d="m450.3 667.1c13.3 0 24.2-10.8 24.2-24.2v-37.3c0-13.3-10.8-24.2-24.2-24.2-13.3 0-24.2 10.8-24.2 24.2v37.4c0 13.3 10.9 24.1 24.2 24.1z" stroke="#ff9e00"/><path d="m509.3 496.8h33.3c4.2 0 7.5-3.4 7.5-7.5v-70.5c0-4.2-3.4-7.5-7.5-7.5h-33.3c-4.2 0-7.5 3.4-7.5 7.5v70.5c0 4.1 3.3 7.5 7.5 7.5z" stroke="#ff9e00"/><path d="m509.3 837.5h33.3c4.2 0 7.5-3.4 7.5-7.5v-70.5c0-4.2-3.4-7.5-7.5-7.5h-33.3c-4.2 0-7.5 3.4-7.5 7.5v70.5c0 4.1 3.3 7.5 7.5 7.5z" stroke="#ff9e00"/><path d="m604.7 667.1c13.3 0 24.2-10.8 24.2-24.2v-37.3c0-13.3-10.8-24.2-24.2-24.2-13.3 0-24.2 10.8-24.2 24.2v37.4c.1 13.3 10.9 24.1 24.2 24.1z" stroke="#ff9e00"/><g stroke="#7f68be"><path d="m266.4 806.6-180.9 181"/><path d="m905.5 208v65.2"/><path d="m905.5 9.2v172.1"/><path d="m905.5 310.4v125.1"/><path d="m905.5 477.7v185.9"/><path d="m905.5 831.9v103.6"/><path d="m905.5 686v113.7"/><path d="m810.2 607.6v110.6"/><path d="m810.2 454.2v113.3"/><path d="m810.2 9.2v119"/><path d="m810.2 154.7v155.3"/><path d="m810.2 335.4v95.3"/><path d="m810.2 745v99.6"/><path d="m810.2 866.2v69.3"/><path d="m714.8 229.9v80.1"/><path d="m714.8 68.7v133.1"/><path d="m714.8 9.2v38.4"/><path d="m714.8 335.4v95.3"/><path d="m714.8 911.4v24.1"/><path d="m714.8 790.7v103.7"/><path d="m714.8 745v31.9"/><path d="m619.5 285.5v114"/><path d="m619.5 102.8v157.9"/><path d="m619.5 9.2v61.8"/><path d="m619.5 849.2v86.3"/><path d="m524.1 226.5v119.5"/><path d="m524.1 160v42.6"/><path d="m524.1 9.2v119"/><path d="m714.8 465.3v31.9"/><path d="m524.1 902.6v32.9"/><path d="m428.7 297.6v48.4"/><path d="m428.7 226.5v52.7"/><path d="m428.7 71v131.6"/><path d="m428.7 9.2v43.4"/><path d="m428.7 902.6v32.9"/><path d="m333.4 257.1v104.9"/><path d="m333.4 160v84.5"/><path d="m333.4 9.2v127.6"/><path d="m333.4 886.7v48.8"/><path d="m238 336.2v107.9"/><path d="m238 90.3v217.5"/><path d="m238 9.2v50.8"/><path d="m238 886.7v48.8"/><path d="m142.7 150.8v109.7"/><path d="m142.7 9.2v114.9"/><path d="m142.7 285v150.5"/><path d="m142.7 465v77.8"/><path d="m142.7 831.9v43.2"/><path d="m142.7 637.9v174.5"/><path d="m142.7 565.2v51"/><circle cx="448.7" cy="624.3" r="257.7"/></g></g></svg>