<svg enable-background="new 0 0 1000 1000" viewBox="0 0 1000 1000" xmlns="http://www.w3.org/2000/svg"><ellipse cx="304.3" cy="404.4" fill="#ff9e00" rx="38.8" ry="38.8" transform="matrix(.7071 -.7071 .7071 .7071 -196.8245 333.5907)"/><circle cx="483.8" cy="637.7" fill="#ff9e00" r="38.8"/><circle cx="398.4" cy="766.4" fill="#ff9e00" r="38.8"/><circle cx="602.7" cy="310" fill="#ff9e00" r="38.8"/><circle cx="398.4" cy="293.1" fill="#ff9e00" r="38.8"/><circle cx="570" cy="805.5" fill="#ff9e00" r="38.8"/><ellipse cx="497.8" cy="467.2" fill="#ff9e00" rx="38.8" ry="38.8" transform="matrix(.9239 -.3827 .3827 .9239 -140.8946 226.0568)"/><circle cx="655" cy="511.8" fill="#ff9e00" r="38.8"/><g fill="none" stroke="#7f68be" stroke-miterlimit="10" stroke-width="22"><path d="m690.7 110.7v83.4c0 4.8-5.9 7-9.1 3.5l-145.4-162.8c-20.5-22.9-56.3-22.9-76.8 0l-409.1 458c-12.5 14-2.6 36.2 16.2 36.2h93.3c26.5 0 48.7 20.1 51.3 46.5l49.4 358.1c2.6 26.4 24.7 46.5 51.3 46.5h372.1c26.5 0 48.7-20.1 51.3-46.5l49.4-358.1c2.6-26.4 24.7-46.5 51.3-46.5h93.3c18.8 0 28.7-22.2 16.2-36.2l-144.4-161.5c-4.7-5.3-7.4-12.2-7.4-19.3v-201.3c0-8.6-7-15.6-15.6-15.6h-71.8c-8.5 0-15.5 7-15.5 15.6z"/><path d="m304.3 208.4v157.2"/><path d="m759.6 756.2-104.6-104.6c-8.9-8.9-21-13.9-33.7-13.9h-98.6"/><path d="m398.4 980.2v-174.9"/><path d="m866.4 404.4h-144.8c-15.6 0-30.7-6.2-41.7-17.3l-49.6-49.6"/><path d="m398.4 103v151.3"/><path d="m504.8 980.2v-98.5c0-7 2.8-13.7 7.7-18.7l30-30"/><path d="m776.5 633.4-94.1-94.2"/><path d="m220.5 644.3 170.4-170.4c4.3-4.3 10.1-6.7 16.2-6.7h51.9"/><path d="m546.7 46.6v107.7c0 10.2 8.3 18.5 18.5 18.5h94.2"/><path d="m213.5 310v111.1c0 18.3-14.8 33.1-33.1 33.1h-95.7"/><path d="m226.7 689h62.3c10.5 0 19 8.5 19 19v39.6c0 10.5-8.5 19-19 19h-51.6"/><path d="m621.6 980.2v-77.4c0-27.9 18.2-52.6 44.8-60.9l85-26.6"/></g></svg>