<svg enable-background="new 0 0 1000 1000" viewBox="0 0 1000 1000" xmlns="http://www.w3.org/2000/svg"><g fill="none" stroke-miterlimit="10" stroke-width="22"><g stroke="#ff9e00"><path d="m676.9 507.8v66.4"/><path d="m557.1 507.8v66.4"/><path d="m615.7 379.9v62.1"/><path d="m615.7 640v62.1"/><path d="m437.2 507.8v66.4"/><path d="m495.9 375.6v66.4"/><path d="m495.9 640v66.4"/><path d="m376.1 381.8v60.2"/><path d="m376.1 640v60.2"/><path d="m317.4 507.8v66.4"/><path d="m631.6 574.2h-31.8c-1.6 0-2.8-1.3-2.8-2.8v-60.8c0-1.6 1.3-2.8 2.8-2.8h31.8c1.6 0 2.8 1.3 2.8 2.8v60.8c.1 1.5-1.2 2.8-2.8 2.8z"/><path d="m573 442h-31.8c-1.6 0-2.8-1.3-2.8-2.8v-60.8c0-1.6 1.3-2.8 2.8-2.8h31.8c1.6 0 2.8 1.3 2.8 2.8v60.8c0 1.5-1.3 2.8-2.8 2.8z"/><path d="m573 706.4h-31.8c-1.6 0-2.8-1.3-2.8-2.8v-60.8c0-1.6 1.3-2.8 2.8-2.8h31.8c1.6 0 2.8 1.3 2.8 2.8v60.8c0 1.5-1.3 2.8-2.8 2.8z"/><path d="m511.8 574.2h-31.8c-1.6 0-2.8-1.3-2.8-2.8v-60.8c0-1.6 1.3-2.8 2.8-2.8h31.8c1.6 0 2.8 1.3 2.8 2.8v60.8c0 1.5-1.2 2.8-2.8 2.8z"/><path d="m453.1 442h-31.8c-1.6 0-2.8-1.3-2.8-2.8v-60.8c0-1.6 1.3-2.8 2.8-2.8h31.8c1.6 0 2.8 1.3 2.8 2.8v60.8c.1 1.5-1.2 2.8-2.8 2.8z"/><path d="m453.1 706.4h-31.8c-1.6 0-2.8-1.3-2.8-2.8v-60.8c0-1.6 1.3-2.8 2.8-2.8h31.8c1.6 0 2.8 1.3 2.8 2.8v60.8c.1 1.5-1.2 2.8-2.8 2.8z"/><path d="m392 574.2h-31.8c-1.6 0-2.8-1.3-2.8-2.8v-60.8c0-1.6 1.3-2.8 2.8-2.8h31.8c1.6 0 2.8 1.3 2.8 2.8v60.8c0 1.5-1.3 2.8-2.8 2.8z"/></g><path d="m638.6 682.4 108 108" stroke="#7f68be"/><path d="m719.2 623.6h48.9c115.2 0 208.6-93.4 208.6-208.6s-93.4-208.6-208.6-208.6c-9.6 0-19.1.7-28.3 2 .2-3.5.3-7 .3-10.6 0-99.8-80.9-180.6-180.6-180.6-80.7 0-149.1 53-172.2 126.1-14.8-9.3-31.7-15.9-50.1-18.7-72-11.2-139.3 38.1-150.5 110.1-3.6 23.4-.8 46.2 7 66.8-4.9-.4-9.8-.7-14.7-.7-89.2 0-161.5 72.3-161.5 161.5s72.3 161.5 161.5 161.5h96.1" stroke="#7f68be"/><circle cx="497.1" cy="541" r="200" stroke="#7f68be"/></g></svg>