<svg enable-background="new 0 0 1000 1000" viewBox="0 0 1000 1000" xmlns="http://www.w3.org/2000/svg"><g clip-rule="evenodd" fill-rule="evenodd"><path d="m538.6 983.7c97.5-8.5 186.1-47.7 256.3-107.9-9.9-3.2-19.7-7.6-29-13-25.5-14.7-45.3-35.6-58.4-59.7-47.9 36.8-105.8 61.1-168.9 68.4zm407.6-371c4.9-26.7 7.5-54.2 7.5-82.3 0-68.7-15.3-133.8-42.5-192.2l-57.6 33.3h-.2l-39.4 22.8c18.1 41.7 28.1 87.7 28.1 136.1 0 14.6-1 29-2.8 43.2 26.2-.7 52.9 5.2 77.6 18.5l3.9 2.3c9.3 5.4 17.7 11.5 25.4 18.3z" fill="#8e8aa1"/><path d="m86.2 338.2c-27.2 58.4-42.5 123.5-42.5 192.3 0 28.4 2.6 56.2 7.6 83.1 7.7-6.8 16.1-13 25.4-18.4l4-2.2c24.5-13.3 51.2-19.3 77.4-18.7-1.8-14.4-2.8-29-2.8-43.9 0-48.4 10-94.3 28-136.1l-49.1-28.3.1-.1zm117 538.2c70.1 59.9 158.5 98.9 255.7 107.3v-112.2c-62.9-7.3-120.6-31.5-168.4-68.1-13.1 24.2-32.8 45.1-58.3 59.9l-4 2.3c-8.2 4.3-16.5 7.9-25 10.8z" fill="#9a97b4"/><path d="m345.2 102c-89.3 32-165.6 91.1-219.2 167.4l47.9 27.7h.2l49.1 28.3c36.5-48.9 85.7-87.8 142.7-111.8-14.9-23.7-23.5-51.6-23.6-81.6 0-10.2 1-20.2 2.9-30zm284 110.8c58 23.8 108.1 63.1 145 112.7l39.5-22.8 57.7-33.3c-54.2-77.1-131.7-136.7-222.2-168.4 1.9 9.7 3 19.8 3.1 30.2 0 29.9-8.4 57.8-23.1 81.6z" fill="#9a97b4"/><g fill="#7f68be"><path d="m737.3 667.4c16.9-29.2 44.1-48.9 74.3-57s63.6-4.7 92.8 12.2l2.9 1.7c27.6 17 46.3 43.4 54.2 72.6 8.1 30.2 4.6 63.6-12.2 92.8-16.8 29.3-44 48.9-74.3 57.1-30.3 8.1-63.6 4.7-92.8-12.2-29.3-16.9-48.9-44-57-74.3s-4.7-63.7 12.1-92.9z"/><path d="m497.8 254c-33.8.1-64.5-13.5-86.7-35.6s-36.1-52.6-36.2-86.3c-.1-33.8 13.5-64.5 35.5-86.7 22.1-22.2 52.7-36.1 86.4-36.2 33.8-.1 64.5 13.5 86.8 35.6 22.2 22.1 36 52.6 36.1 86.3.1 33.8-13.4 64.5-35.5 86.7-22.2 22.3-52.7 36.1-86.4 36.2z"/><path d="m260.2 667.8c16.9 29.3 20.5 62.7 12.4 92.9-8 30-27.4 57-56.2 74l-.7.4c-29.2 17-62.6 20.5-92.9 12.4-29.8-7.9-56.7-27.2-73.7-55.7l-.7-1.1c-17-29.2-20.5-62.6-12.4-92.8 8-30.1 27.4-57.1 56.3-74.1l.5-.3c29.3-17 62.6-20.4 92.9-12.4 30.4 8 57.6 27.5 74.5 56.7z"/></g><path d="m499.9 718.8c104.1 0 188.6-84.4 188.6-188.6s-84.4-188.6-188.6-188.6-188.6 84.4-188.6 188.6c.1 104.2 84.5 188.6 188.6 188.6z" fill="#ff9e00"/></g></svg>