<svg enable-background="new 0 0 1000 1000" viewBox="0 0 1000 1000" xmlns="http://www.w3.org/2000/svg"><g clip-rule="evenodd" fill-rule="evenodd"><path d="m338.1 153.2 6.6-21.7c10.4-32.1 29.9-58.6 55.2-77 25.3-18.5 56.5-28.9 90.4-28.9l20.4.1c33.8-.1 65 10.4 90.4 28.8 25.3 18.5 44.8 45 55.2 77.1l32.2 99.7c50.4 3.6 90.2 45.7 90.2 97 0 53.7-43.6 97.3-97.3 97.3s-97.3-43.6-97.3-97.3c0-30 13.6-56.7 34.8-74.6l-29.9-92.4c-6.1-18.9-17.6-34.6-32.7-45.6-15-10.9-33.6-17.2-53.4-17.2h-4.6c-19.8 0-38.3 6.2-53.5 17.2-13.7 10-24.5 23.9-30.9 40.6-13.8-4.5-28.5-6.9-43.8-6.9-11 .1-21.7 1.4-32 3.8z" fill="#7f68be"/><path d="m97.5 564.5-18.5-13.3c-27.4-19.8-46.6-46.6-56.3-76.3-9.7-29.8-10-62.7.4-94.9l6.3-19.4c10.4-32.1 30-58.6 55.3-77 25.4-18.4 56.7-28.8 90.4-28.8l104.7.1c14.4-35.5 49.4-60.6 90.1-60.6 53.7 0 97.3 43.6 97.3 97.3s-43.6 97.3-97.3 97.3c-40.9 0-75.8-25.2-90.3-60.9l-97-.1c-20 0-38.4 6.2-53.5 17-15 10.9-26.7 26.6-32.8 45.6l-1.4 4.4c-6.1 19-5.9 38.4-.2 56.1 5.3 16.1 15.1 30.8 29.2 42.1-14.7 20.4-24.2 44.9-26.4 71.4z" fill="#9a97b4"/><path d="m245.7 673.7-30.2 92.2c-6.2 18.9-6 38.4-.3 56.1 5.8 17.7 17.1 33.6 33.1 45.3l3.8 2.7c16.1 11.7 34.7 17.6 53.3 17.6 16.9-.1 34-5 49-14.7 4.4 6 9.2 11.6 14.4 16.8 12.9 12.9 28.3 23.3 45.3 30.5l-18.5 13.4c-27.2 19.8-58.6 29.8-90 29.8-31.3.1-62.7-9.8-90-29.8l-16.5-11.9c-27.4-20-46.5-46.8-56.1-76.5-9.6-29.8-9.8-62.8.7-94.9l32.6-99.4c-21.1-17.9-34.5-44.5-34.5-74.4 0-53.7 43.6-97.3 97.3-97.3s97.3 43.6 97.3 97.3c0 51.7-40 93.8-90.7 97.2z" fill="#ff9e00"/><path d="m850.2 728.9 7.1 21.6c10.5 32.2 10.3 65.1.7 94.9s-28.8 56.5-56.1 76.4l-16.5 12c-27.4 19.9-58.8 29.8-90.1 29.8s-62.7-10-90-29.9l-84.6-61.7c-14.9 9.3-32.5 14.6-51.3 14.6-53.7 0-97.3-43.6-97.3-97.3 0-53.8 43.6-97.3 97.3-97.3s97.3 43.6 97.3 97.3c0 8.1-1 16-2.9 23.5l78.5 57.2c16.1 11.7 34.6 17.6 53.2 17.6 18.7.1 37.3-5.8 53.3-17.5l3.7-2.7c16.1-11.7 27.4-27.6 33.2-45.4 5.2-16.1 5.8-33.7 1.2-51 21.5-7 40.8-19 56.4-34.7 2.3-2.4 4.6-4.9 6.9-7.4z" fill="#7f68be"/><path d="m802.9 254.9h22.8c33.8-.1 65 10.3 90.4 28.7 25.3 18.4 44.9 44.9 55.4 77l6.3 19.4c10.5 32.1 10.2 65 .5 94.9-9.7 29.7-28.9 56.5-56.3 76.3l-84.7 61.4c1.8 7.4 2.8 15.2 2.8 23.2 0 53.8-43.6 97.3-97.3 97.3s-97.3-43.5-97.3-97.3c0-53.7 43.6-97.3 97.3-97.3 19 0 36.7 5.5 51.7 14.9l78.6-56.9c16.1-11.7 27.4-27.5 33.2-45.2 5.8-17.6 5.9-37.2-.2-56.1l-1.5-4.4c-6.2-19-17.8-34.6-32.8-45.6-13.7-10-30.4-15.9-48.3-16.9-.1-26.8-7.6-51.9-20.6-73.4z" fill="#ff9e00"/></g></svg>