<svg enable-background="new 0 0 1000 1000" viewBox="0 0 1000 1000" xmlns="http://www.w3.org/2000/svg"><path clip-rule="evenodd" d="m837.3 848.4c45.9-44.8 82.3-98.1 107.3-156.2l-58.5-30.3-13.1-6.9-21.3-11.1-7.2-3.7 2.8-7.5c16.2-42.4 24.7-87.7 24.7-133.8 0-44.3-8-89.5-24.8-133.5-24.9-65.1-65.9-119.2-116.7-159.5-49.8-39.5-109-65.9-171.8-76.4l3.3 72.6c48.1 10.5 93.1 32.7 131 64.5 38.3 32.1 69.2 74.2 88.2 124.1 18.8 49.1 24 100.1 17.4 148.9-6.4 47.1-23.6 91.9-50.1 131l70.2 36.3 21.4 11.1 8.9 4.6-5.6 8.4c-23.6 35.3-52.6 67.1-86.5 94.1-32.7 26.1-70 47.6-111.1 63.4-81.4 31.1-166.6 35-245.4 16.1-78.7-18.9-151.1-60.4-207.2-120.1l-60.5 38.6c65.3 73.2 150.8 124.5 244.3 148.4 94.2 24 196.4 20.2 294.1-17.1 64.1-24.4 120.1-61 166.2-106z" fill="#9a97b4" fill-rule="evenodd"/><path clip-rule="evenodd" d="m984.6 493.3c-.6-56-11-112.8-32.2-168.2-40.8-106.5-114.9-190.6-205.9-244.7-90.7-53.9-198.1-78.2-306-65.4l2.8 60.3.9 20.4 1.1 24 .4 8-7.9 1.3c-12.4 2-25 4.7-37.6 8.1-12.3 3.2-24.6 7.3-36.8 11.9h-.1c-96.6 37-169.1 109.6-208.2 197.1-38.9 86.9-44.8 188.4-8.8 284.5l61.2-39.1c-24.1-75.3-17.2-153.9 14.2-221.1 32.3-69 90.3-126.1 167-155.4 22.9-8.8 46.3-14.6 69.8-17.6 20.6-2.7 41.1-3.2 61.4-1.7l-3.2-70.4-.4-8.7-1.1-24.1-.5-10.1 10.1.7c79.9 5.4 156.5 33.7 220.5 80.9 61.9 45.7 111.8 109 141.4 186.2 17.3 45.3 26.1 91.7 27.4 137.6 1.2 45-5 89.5-17.8 131.6l63.6 33c16.7-50.7 25.4-104.5 24.7-159.1z" fill="#ff9e00" fill-rule="evenodd"/><path clip-rule="evenodd" d="m72 737.7c10.4 18.5 21.8 36 34.1 52.7l61.3-39.2h-.1l6.8-4.4 20.3-13 6.8-4.4 5.1 6.3c50.3 61.9 118.8 105.4 194.3 125.6 73.5 19.7 153.7 17.2 230.2-12.1 32.8-12.5 62.8-29.1 89.6-49 24.8-18.4 46.8-39.5 66-62.8l-64.3-33.4c-15 16.5-31.9 31.4-50.5 44.4-20.1 14-42.1 25.8-65.9 34.9-75.9 29.1-156.2 25.6-225.7-3.4-66.8-27.9-123.6-79.5-156.9-148.7l-66.6 42.6-20.3 13-8.5 5.4-4.4-9.1c-2.9-5.9-5.5-11.7-8.1-17.4-2.6-6.1-5.1-12.1-7.3-17.9-41.1-107.4-34.7-221.4 8.8-318.8 43.6-97.4 124.2-178.1 231.7-219.2 10-3.8 20.1-7.3 30.2-10.3 7.8-2.3 15.6-4.4 23.5-6.2l-3.3-71.6c-11.1 2.3-22.1 5-33.3 8.2-14.2 3.9-28.3 8.6-42.4 14-125.7 48-220.1 142.5-271 256.3-50.8 113.9-58.3 247.2-10.2 372.9 8.6 22.6 18.7 44.1 30.1 64.6z" fill="#7f68be" fill-rule="evenodd"/><path d="m494.2 761.6c217.8-211.5 181.9-144.1 181.9-449.4-10.4 1.5-21 2.2-31.7 2.2-55.2 0-105.9-19.7-145.2-52.4-39.4 32.7-90 52.4-145.3 52.4-14.2 0-28-1.3-41.5-3.8 0 306.2-36.5 239 181.8 451z" fill="#a55500"/><g fill="#ff9e00"><path d="m494.2 761.6c203.2-180.2 199.3-310.7 208.2-412.7-43.2 33.2-99.8 46.7-151.4 36.4 2.2 158-17.5 253.9-56.8 376.3z" opacity=".3"/><path d="m494.2 761.6c200.4-141.7 196-238.4 217.5-348.8-38.9 31.4-88.6 47-136 42.8-.4 127-44.2 229.3-81.5 306z" opacity=".6"/><path d="m494.2 761.6c122.5-81 180.5-171 219.6-279.7-33.5 29.5-76.2 45.8-117.5 44.9-11.5 96.1-61.7 171.1-102.1 234.8z"/><path d="m494.2 761.6c-203.2-180.2-199.3-310.7-208.1-412.7 43.1 33.2 99.8 46.7 151.4 36.4-2.3 158 17.5 253.9 56.7 376.3z" opacity=".3"/><path d="m494.2 761.6c-200.4-141.7-196-238.4-217.6-348.8 38.9 31.4 88.6 47 136 42.8.5 127 44.4 229.3 81.6 306z" opacity=".6"/><path d="m494.2 761.6c-122.5-81-180.5-171-219.5-279.7 33.4 29.5 76.2 45.8 117.4 44.9 11.6 96.1 61.8 171.1 102.1 234.8z"/></g></svg>