<?xml version="1.0" encoding="utf-8"?>
<!-- Generator: Adobe Illustrator 21.1.0, SVG Export Plug-In . SVG Version: 6.00 Build 0)  -->
<svg version="1.1" id="Layer_1" xmlns="http://www.w3.org/2000/svg" xmlns:xlink="http://www.w3.org/1999/xlink" x="0px" y="0px"
	 viewBox="0 0 1000 1000" style="enable-background:new 0 0 1000 1000;" xml:space="preserve">
<style type="text/css">
	.st0{fill:#7F68BE;}
	.st1{fill:#9A97B4;}
	.st2{fill:#FF9E00;}
</style>
<path class="st0" d="M56.2,192l162.3,93.7l154-88.9c79.3-45.8,170-45.8,249.3,0l154,88.9L938.1,192L734.6,74.5
	c-151-87.1-323.8-87.1-474.8,0L56.2,192z"/>
<path class="st1" d="M958.9,228.2l-162.2,93.6v177.8c0,91.6-45.4,170.2-124.7,215.9l-154,88.9v187.4l203.4-117.5
	c151-87.2,237.4-236.9,237.4-411.2L958.9,228.2L958.9,228.2z"/>
<path class="st2" d="M476.2,988.7V804.5l-154-89c-79.3-45.8-124.6-124.3-124.6-215.9V321.8L35.4,228.2v231.9
	c0,174.4,86.4,324,237.4,411.2L476.2,988.7z"/>
<path class="st2" d="M396.3,652.7l-0.5-49.7c39.3-41.9,70.4-79.7,90.6-111.8c20.2-30,30-54.9,30-74c0-29-14.5-47.6-40.4-47.6
	c-18.1,0-35.2,10.9-50.2,23.3l-30.5-53.3c30.5-25.9,57.5-36.8,94.7-36.8c60.6,0,99.9,42.5,99.9,101c0,36.8-14.5,71.4-38.3,107.2
	c-16.6,25.4-37.8,50.7-61.1,77.1H592v64.7L396.3,652.7L396.3,652.7z"/>
</svg>
