<svg enable-background="new 0 0 1000 1000" viewBox="0 0 1000 1000" xmlns="http://www.w3.org/2000/svg"><g clip-rule="evenodd" fill-rule="evenodd"><path d="m221.4 539.8-87.6 16c-4.8-31.6-5.5-64.2-1.8-96.8l.2-1.3.2-1.5.1-1.3.2-1.5.2-1.4c5.3-40.8 17.5-81.2 37-119.4l.1-.3 1.2-2.3.2-.3c19.9-38.5 46-72.4 76.6-100.7l1.2-1.2.6-.6.6-.5 1.2-1.2.2-.2c5.7-5.2 11.6-10.1 17.6-14.9l-15-17.6-57.6-67.8c29.9-24.1 62.5-44.6 97.1-60.9 92-43.6 197.8-58.3 302.5-36.9h.1l3.4.7.4.1.3.1c56.6 11.9 109.2 33.5 156.2 63l1.5 1 .1.1 4.7 3c54 35 99.5 79.8 134.9 131.1l1 1.4 1.1 1.5.7 1.1.3.5 1 1.5 1 1.5.8 1.2.2.2 1 1.5 1 1.5.9 1.5h.1c9 14.1 17.4 28.7 25 43.7h-.1c1.7 3.5 3.4 6.9 5 10.4l-80.4 38c-6.5-13.7-13.8-27.1-21.9-40l-.2-.3-1.5-2.5-.7-1.1v-.1l-.8-1.2-.8-1.2-.8-1.2-.1-.2-.7-1.1-.8-1.2-.8-1.2-.3-.4-.5-.8-.8-1.2-.8-1.2-.8-1.2-.8-1.2-.8-1.2c-6.9-9.8-14.2-19.2-21.9-28.3-23.6-27.8-51.1-52.3-81.6-72.7l-3-2.1-.8-.5-3.2-2c-21.3-13.5-44.1-25.1-68.3-34.6v-.1c-7.2-2.8-14.4-5.4-21.8-7.8v.1c-11-3.6-22-6.6-33.1-9.2l-.1-.1h-2.9l-1.7-.4-1.6-.3-1.6-.4c-12.2-2.5-24.6-4.5-37.1-5.9v-.1c-62.8-7-125.3 1.4-182.5 23l8.1 21.6 31.3 83.2c-7.2 2.7-14.2 5.7-21.1 9-18.8 8.8-36.5 19.8-52.9 32.6-6 4.7-11.9 9.7-17.6 14.9v.1l-.4.3-1 .9-.2.2-1.4 1.4-.3.2-1 .9-.3.3-.6.6-.8.8-.1.1-.9.9-.4.4-.5.5-.9.9-1 1c-11.1 11.3-21.4 23.8-30.8 37.3-5.8 8.4-11.1 17-15.9 25.7l-.2.4-.8 1.5-.2.3-.8 1.5-.2.4-.8 1.5-.2.3-.8 1.5-.2.4-.7 1.5-.2.4-.8 1.5c-4.5 9.1-8.4 18.6-11.8 28.3-5.4 15.3-9.5 30.7-12.2 46.1v.1l-.4 1.9v.2l-.3 1.9v.2l-.3 1.8v.3l-.3 1.7v.4l-.2 1.7-.1.4-.2 1.6-.1.5-.2 1.6c-3.1 25.3-2.8 50.1.6 74.2z" fill="#7f68be"/><path d="m671.4 724.7 56.8 68.6c-25.3 19.6-53.2 36.2-83.5 49l-1.2.5-1.3.6-1.3.5-1.3.5-1.3.5c-38.2 15.3-79.4 24.4-122.1 26.1l-.3.1-2.6.1h-.4c-43.3 1.5-85.6-4.6-125.4-17.4l-1.6-.5-.8-.2-.8-.2-1.6-.5-.3-.1c-7.3-2.5-14.5-5.1-21.6-8l-8 21.6-31 83.4c-35.7-14.2-69.5-32.7-100.6-54.8-83-59.1-147.6-144.1-180.2-245.8l-.1-.1-1.1-3.3-.1-.3-.1-.3c-17.2-55.2-24.1-111.7-21.4-167.2l.1-1.8v-.1l.3-5.5c4-64.3 20.8-125.9 48.3-181.9l.8-1.6.8-1.6.5-1.1.2-.4.8-1.7.8-1.6.7-1.4.1-.2.8-1.6.9-1.6.8-1.5v-.1c7.9-14.8 16.5-29.2 25.8-43.2l.1.1c2.2-3.2 4.3-6.4 6.6-9.5l72.5 51.5c-8.8 12.4-16.8 25.3-24.1 38.6l-.2.4-1.4 2.4-.6 1.2h-.1l-.6 1.3-.7 1.2-.7 1.3-.1.2-.5 1.1-.6 1.2-.7 1.3-.2.4-.4.9-.6 1.3-.6 1.3-.6 1.2-.6 1.3-.7 1.3c-5.1 10.7-9.8 21.8-13.9 32.9-12.7 34.2-20.6 70.1-23.5 106.7l-.2 3.6-.1.9-.2 3.8c-1.4 25.1-.4 50.7 3.3 76.5l-.1.1c1 7.6 2.4 15.2 3.9 22.7h.1c2.3 11.3 5 22.4 8.1 33.4l.1.1.8 2.8.5 1.7.5 1.6.4 1.5c3.8 11.8 8.1 23.6 13.1 35.2l-.1.1c24.7 58.2 62.6 108.6 109.5 147.9l14.8-17.7 57.2-68.1c5.8 4.9 11.9 9.6 18.1 14 16.9 12 35.1 22.2 54.3 30.2v.1c7 2.9 14.3 5.6 21.6 8l.5.2 1.3.4.2.1 2 .6.3.1 1.3.4.4.1.9.2 1.1.3.1.1 1.3.4.5.2.8.2 1.2.4h.1l1.2.3c15.4 4.2 31.3 7.1 47.7 8.6 10.2 1 20.2 1.4 30.2 1.2h.4 1.8.4l1.7-.1h.5l1.7-.1h.4l1.8-.1h.4l1.7-.1.5-.1 1.7-.1c10.1-.6 20.3-1.8 30.4-3.5 16-2.8 31.4-6.8 46.2-11.9l.1-.1 1.9-.6.1-.1 1.8-.7.2-.1 1.7-.6.3-.1 1.7-.6.4-.2 1.6-.6.4-.2 1.5-.6.5-.2 1.4-.7v.1c23.1-9.2 44.5-21.6 63.8-36.4z" fill="#9a97b4"/><path d="m598 236 27.4-84.7c30.1 10.8 59.1 25.6 86.1 44.3l1.1.7 1.2.9 1.1.8 1.2.8 1.1.8c33.4 24 63.2 53.9 87.6 89.1l.2.3 1.4 2.1.2.2c24.6 35.8 42 74.8 52.6 115.2l.4 1.6.2.8.2.8.4 1.7.1.2c1.9 7.5 3.5 15 4.8 22.6l22.6-4.9 87-18.6c7.2 37.7 9.8 76.1 7.8 114.4-5.2 101.7-42.3 201.8-110.6 283.9l-.1.1-2.2 2.7-.3.3-.2.2c-37.3 44.2-81.3 80.3-129.5 107.8l-1.6.9-.1.1-4.8 2.6c-56.4 31.1-117.4 50-179.4 56.9l-1.7.2-1.8.2-1.3.1-.5.1-1.8.2-1.8.2-1.5.1h-.3l-1.8.2-1.8.2-1.8.1h-.1c-16.7 1.3-33.5 1.7-50.3 1.3v-.1c-3.8-.1-7.7-.3-11.5-.5l4.5-88.8c15.2.8 30.3.6 45.6-.4h.3l2.9-.2 1.4-.1h.1l1.4-.1 1.4-.1 1.4-.1h.2l1.2-.1 1.4-.2 1.4-.1.5-.1h1l1.4-.2 1.4-.2 1.4-.1 1.5-.2 1.4-.2c11.8-1.5 23.6-3.4 35.2-5.9 35.6-7.6 70.2-20.2 102.7-37.5l3.2-1.7.8-.5 3.3-1.8c22-12.3 43-27 62.9-43.9l.1.1c5.8-5 11.5-10.1 17.2-15.5h-.1c8.4-8.1 16.3-16.2 23.8-24.8v-.1l2-2.2 1.2-1.4 1.1-1.2 1-1.2c8-9.5 15.6-19.5 22.8-29.9h.1c35.9-52 58.1-111 66.1-171.7l-22.9-3.1-88.2-11.7c1-7.6 1.7-15.2 2.1-22.9 1.1-20.6-.2-41.5-3.7-62h.1c-1.4-7.5-2.9-15-4.9-22.5l-.1-.5-.4-1.3-.1-.2-.6-2v-.3l-.3-1.3-.1-.4-.2-.9-.3-1.1v-.1l-.4-1.3-.1-.6-.2-.7-.4-1.2v-.1l-.4-1.2c-4.8-15.2-10.8-30.2-18.3-44.9-4.6-9.1-9.8-17.8-15.2-26.1l-.2-.3-.9-1.5-.2-.4-.9-1.4-.3-.4-.9-1.4-.3-.3-.9-1.5-.2-.4-1-1.3-.3-.4-1-1.4c-5.9-8.2-12.4-16.2-19.3-23.8-10.9-12-22.5-22.9-34.8-32.6l-.1-.1-1.5-1.2-.1-.1-1.5-1.2-.2-.1-1.5-1.1-.2-.2-1.5-1-.3-.2-1.3-1-.4-.2-1.3-1-.4-.3-1.3-.9c-20.9-14.6-42.9-25.9-65.7-34.4z" fill="#ff9e00"/><path d="m501 293.2c114.6 0 207.6 93 207.6 207.6 0 114.7-93 207.6-207.6 207.6s-207.6-93-207.6-207.6c-.1-114.6 92.9-207.6 207.6-207.6z" fill="#7f68be"/><path d="m571.6 369.9c33.4 0 60.4 27 60.4 60.4s-27.1 60.4-60.4 60.4c-33.4 0-60.4-27.1-60.4-60.4 0-33.4 27-60.4 60.4-60.4z" fill="#fff"/></g></svg>