<svg enable-background="new 0 0 1000 1000" viewBox="0 0 1000 1000" xmlns="http://www.w3.org/2000/svg"><g clip-rule="evenodd" fill-rule="evenodd"><path d="m56.2 192 162.3 93.7 154-88.9c79.3-45.8 170-45.8 249.3 0l154 88.9 162.3-93.7-203.5-117.5c-151-87.1-323.8-87.1-474.8 0z" fill="#9a97b4"/><path d="m958.9 228.2-162.2 93.6v177.8c0 91.6-45.4 170.2-124.7 215.9l-154 88.9v187.4l203.4-117.5c151-87.2 237.4-236.9 237.4-411.2v-234.9z" fill="#ff9e00"/><path d="m476.2 988.7v-184.2l-154-89c-79.3-45.8-124.6-124.3-124.6-215.9v-177.8l-162.2-93.6v231.9c0 174.4 86.4 324 237.4 411.2z" fill="#7f68be"/></g><path d="m461.3 652.7v-261.4l-42.5 16.1-22.3-62.1 115.5-43h22.8v350.5h-73.5z" fill="#ff9e00"/></svg>