<?xml version="1.0" encoding="utf-8"?>
<!-- Generator: Adobe Illustrator 21.1.0, SVG Export Plug-In . SVG Version: 6.00 Build 0)  -->
<svg version="1.1" id="Layer_1" xmlns="http://www.w3.org/2000/svg" xmlns:xlink="http://www.w3.org/1999/xlink" x="0px" y="0px"
	 viewBox="0 0 1000 1000" style="enable-background:new 0 0 1000 1000;" xml:space="preserve">
<style type="text/css">
	.st0{fill:#FF9E00;}
	.st1{fill:#7F68BE;}
	.st2{fill:#9A97B4;}
</style>
<path class="st0" d="M56.2,192l162.3,93.7l154-88.9c79.3-45.8,170-45.8,249.3,0l154,88.9L938.1,192L734.6,74.5
	c-151-87.1-323.8-87.1-474.8,0L56.2,192z"/>
<path class="st1" d="M958.9,228.2l-162.2,93.6v177.8c0,91.6-45.4,170.2-124.7,215.9l-154,88.9v187.4l203.4-117.5
	c151-87.2,237.4-236.9,237.4-411.2L958.9,228.2L958.9,228.2z"/>
<path class="st2" d="M476.2,988.7V804.5l-154-89c-79.3-45.8-124.6-124.3-124.6-215.9V321.8L35.4,228.2v231.9
	c0,174.4,86.4,324,237.4,411.2L476.2,988.7z"/>
<path class="st0" d="M510.7,449.2c53.3,8.3,83.4,44,83.4,94.7c0,66.8-48.2,113.9-115.5,113.9c-28,0-54.9-4.7-80.8-15.5l17.1-62.1
	c16.1,7.2,36.2,12.4,54.4,12.4c29,0,50.7-14.5,50.7-46.6c0-26.4-18.6-41.9-48.1-41.9c-14,0-25.9,2.1-36.8,6.2l-16.6-38.8l83.9-97.9
	h-96.3v-65.8h183.3l0.5,55.9L510.7,449.2z"/>
</svg>
